{"title":"Were.the.Millers.2013.EXTENDED.BRRip.XviD-TODE","uid":9126741,"size":728009600,"categoryP":"video","categoryS":"movies","magnet":"?xt=urn:btih:e585754dacd4eb963c4701e4d55dc27ef5d7de57&amp;dn=Were.the.Millers.2013.EXTENDED.BRRip.XviD-TODE&amp;tr=udp%3A%2F%2Ftracker.openbittorrent.com%3A80&amp;tr=udp%3A%2F%2Fopen.demonii.com%3A1337&amp;tr=udp%3A%2F%2Ftracker.coppersurfer.tk%3A6969&amp;tr=udp%3A%2F%2Fexodus.desync.com%3A6969","seeders":1,"leechers":0,"uploader":"xxxlavalxxx","files":-1,"time":1383240159,"description":" &lt;a href=&quot;http://www.imdb.com/title/tt1723121/&quot; rel=&quot;nofollow&quot; target=&quot;_NEW&quot;&gt;http://www.imdb.com/title/tt1723121/&lt;/a&gt;\n\n\nAfter being robbed of a week's take, small-time pot dealer David is forced by his boss to go to Mexico to pick up a load of marijuana. In order to improve his odds of making it past the border, David asks the broke stripper Rose and two local teenagers to join him and pretend they're on a family holiday. \n\nDirector: Rawson Marshall Thurber\nWriters: Bob Fisher (screenplay), Steve Faber (screenplay)\nStars: Jason Sudeikis, Jennifer Aniston, Emma Roberts \nGenres: Comedy | Crime\nCountry: USA\nLanguage: English | Spanish\n\n\n\nFormat                                   : AVI\nFormat/Info                              : Audio Video Interleave\nFile size                                : 694 MiB\nDuration                                 : 1h 58mn\nOverall bit rate                         : 818 Kbps\n\nVideo\nID                                       : 0\nFormat                                   : MPEG-4 Visual\nFormat profile                           : Advanced Simple@L5\nFormat settings, BVOP                    : 2\nFormat settings, QPel                    : No\nFormat settings, GMC                     : No warppoints\nFormat settings, Matrix                  : Default (H.263)\nCodec ID                                 : XVID\nCodec ID/Hint                            : XviD\nDuration                                 : 1h 58mn\nBit rate                                 : 684 Kbps\nWidth                                    : 720 pixels\nHeight                                   : 304 pixels\nDisplay aspect ratio                     : 2.35:1\nFrame rate                               : 23.976 fps\nColor space                              : YUV\nChroma subsampling                       : 4:2:0\nBit depth                                : 8 bits\nScan type                                : Progressive\nCompression mode                         : Lossy\nBits/(Pixel*Frame)                       : 0.130\nStream size                              : 581 MiB (84%)\nWriting library                          : XviD 1.2.1 (UTC 2008-12-04)\n\nAudio\nID                                       : 1\nFormat                                   : MPEG Audio\nFormat version                           : Version 1\nFormat profile                           : Layer 3\nMode                                     : Joint stereo\nMode extension                           : MS Stereo\nCodec ID                                 : 55\nCodec ID/Hint                            : MP3\nDuration                                 : 1h 58mn\nBit rate mode                            : Constant\nBit rate                                 : 128 Kbps\nChannel(s)                               : 2 channels\nSampling rate                            : 48.0 KHz\nCompression mode                         : Lossy\nStream size                              : 109 MiB (16%)\nAlignment                                : Aligned on interleaves\nInterleave, duration                     : 167 ms (4.00 video frames)\nInterleave, preload duration             : 216 ms\nTitle                                    : T2_Audio - English\nWriting library                          : LAME3.99r\nEncoding settings                        : -m j -V 4 -q 2 -lowpass 17 -b 128\n\n\n\n\n &lt;a href=&quot;\nhttp://i.imgur.com/wcUfTX1.jpg&quot; rel=&quot;nofollow&quot; target=&quot;_NEW&quot;&gt;\nhttp://i.imgur.com/wcUfTX1.jpg&lt;/a&gt; &lt;a href=&quot;\nhttp://i.imgur.com/XrmQcmw.jpg&quot; rel=&quot;nofollow&quot; target=&quot;_NEW&quot;&gt;\nhttp://i.imgur.com/XrmQcmw.jpg&lt;/a&gt; &lt;a href=&quot;\nhttp://i.imgur.com/wKb1m0V.jpg&quot; rel=&quot;nofollow&quot; target=&quot;_NEW&quot;&gt;\nhttp://i.imgur.com/wKb1m0V.jpg&lt;/a&gt; &lt;a href=&quot;\nhttp://i.imgur.com/BOFh8Yt.jpg&quot; rel=&quot;nofollow&quot; target=&quot;_NEW&quot;&gt;\nhttp://i.imgur.com/BOFh8Yt.jpg&lt;/a&gt; &lt;a href=&quot;\nhttp://i.imgur.com/sVsJRUU.jpg&quot; rel=&quot;nofollow&quot; target=&quot;_NEW&quot;&gt;\nhttp://i.imgur.com/sVsJRUU.jpg&lt;/a&gt; &lt;a href=&quot;\nhttp://i.imgur.com/amFMuYj.jpg&quot; rel=&quot;nofollow&quot; target=&quot;_NEW&quot;&gt;\nhttp://i.imgur.com/amFMuYj.jpg&lt;/a&gt;\n","torrent":{"xt":"urn:btih:e585754dacd4eb963c4701e4d55dc27ef5d7de57","amp;dn":"Were.the.Millers.2013.EXTENDED.BRRip.XviD-TODE","amp;tr":["udp%3A%2F%2Ftracker.openbittorrent.com%3A80","udp%3A%2F%2Fopen.demonii.com%3A1337","udp%3A%2F%2Ftracker.coppersurfer.tk%3A6969","udp%3A%2F%2Fexodus.desync.com%3A6969"],"infoHash":"e585754dacd4eb963c4701e4d55dc27ef5d7de57","infoHashBuffer":{"type":"Buffer","data":[229,133,117,77,172,212,235,150,60,71,1,228,213,93,194,126,245,215,222,87]},"announce":[],"urlList":[]}}